<?xml version="1.0" standalone="no"?>
<!DOCTYPE svg PUBLIC "-//W3C//DTD SVG 20010904//EN"
 "http://www.w3.org/TR/2001/REC-SVG-20010904/DTD/svg10.dtd">
<svg version="1.0" xmlns="http://www.w3.org/2000/svg"
 width="960.000000pt" height="960.000000pt" viewBox="0 0 960.000000 960.000000"
 preserveAspectRatio="xMidYMid meet">
<metadata>
Created by potrace 1.14, written by Peter Selinger 2001-2017
</metadata>
<g transform="translate(0.000000,960.000000) scale(0.100000,-0.100000)"
fill="#000000" stroke="none">
<path d="M1295 8293 c-25 -38 -22 -47 58 -178 7 -11 14 -22 17 -25 13 -13 60
-91 60 -100 0 -5 3 -10 8 -10 4 0 34 -43 67 -96 33 -53 66 -102 73 -109 6 -8
12 -16 12 -19 0 -3 34 -59 76 -123 222 -341 408 -633 434 -680 8 -15 22 -35
31 -45 9 -10 22 -31 30 -46 7 -15 25 -43 39 -62 14 -19 32 -47 39 -62 8 -16
18 -28 23 -28 4 0 8 -4 8 -9 0 -10 148 -244 169 -268 6 -7 16 -24 23 -38 6
-14 15 -25 20 -25 4 0 8 -4 8 -10 0 -9 107 -180 130 -207 5 -7 10 -14 10 -17
0 -2 27 -45 60 -95 33 -50 60 -95 60 -100 0 -5 3 -11 8 -13 6 -2 155 -229 187
-285 6 -10 19 -31 29 -46 19 -28 19 -62 20 -1008 l1 -978 23 -23 c21 -22 28
-23 212 -23 184 0 190 1 212 23 l23 23 1 977 1 977 60 95 c95 151 311 487 369
577 30 46 54 87 54 93 0 5 4 10 8 10 5 0 19 19 32 43 13 23 28 47 33 52 4 6
42 64 84 130 42 66 99 156 127 200 118 183 175 272 248 388 42 67 81 127 85
132 5 6 20 28 33 50 13 22 28 45 32 50 5 6 38 57 75 115 36 58 90 142 119 187
30 46 54 87 54 92 0 5 4 11 9 13 4 2 32 41 61 88 70 112 177 278 200 311 30
43 34 72 12 99 -18 23 -23 23 -188 24 -93 1 -183 -1 -201 -5 -32 -7 -91 -47
-92 -62 -1 -5 -36 -61 -78 -125 -115 -176 -278 -427 -378 -585 -57 -88 -57
-89 -145 -229 -35 -56 -68 -104 -72 -106 -4 -2 -8 -7 -8 -12 0 -7 -73 -126
-152 -248 -10 -15 -21 -34 -25 -42 -3 -8 -9 -17 -13 -20 -3 -3 -21 -30 -40
-60 -19 -30 -38 -58 -43 -61 -5 -3 -9 -10 -9 -15 -1 -9 -67 -113 -255 -401
-46 -70 -83 -130 -83 -135 0 -4 -4 -8 -10 -8 -5 0 -10 -7 -10 -15 0 -8 -4 -15
-9 -15 -5 0 -14 -13 -21 -30 -7 -16 -16 -30 -21 -30 -5 0 -9 -5 -9 -10 0 -16
-64 -109 -75 -109 -9 -1 -71 92 -84 124 -2 5 -7 12 -11 15 -3 3 -31 45 -61 94
-30 49 -64 105 -76 125 -12 20 -29 47 -37 61 -8 14 -35 57 -60 95 -25 39 -46
76 -46 83 0 6 -4 12 -8 12 -5 0 -15 12 -22 28 -8 15 -22 36 -31 47 -10 11 -17
22 -17 25 1 3 -16 33 -38 68 -38 62 -52 85 -162 259 -29 45 -52 87 -52 92 0 6
-4 11 -8 11 -5 0 -14 10 -20 23 -12 23 -18 33 -127 208 -38 62 -72 118 -74
124 -2 5 -7 12 -11 15 -3 3 -38 56 -76 118 -38 62 -77 125 -86 140 -9 15 -23
37 -30 49 -15 25 -118 191 -160 256 -15 23 -34 57 -44 75 -9 17 -20 32 -25 32
-5 0 -8 3 -7 8 5 13 -60 98 -88 117 -24 16 -54 18 -241 19 -210 1 -214 1 -228
-21z"/>
<path d="M5596 6803 c-1 -2 -13 -4 -26 -6 -13 -2 -33 -16 -44 -30 -17 -23 -19
-44 -21 -171 0 -80 4 -160 9 -178 21 -65 -1 -63 778 -63 l703 1 -1 -1786 c-1
-1821 -2 -1859 -38 -1998 -37 -140 -148 -246 -314 -301 -35 -12 -86 -23 -115
-26 -29 -2 -54 -5 -57 -5 -3 -1 -27 -1 -55 0 -186 5 -322 53 -425 152 -49 47
-80 98 -103 168 -14 42 -19 67 -33 165 -3 22 -7 164 -8 315 -2 151 -6 285 -10
298 -15 45 -50 52 -260 52 -188 0 -196 -1 -221 -22 -14 -13 -29 -39 -33 -58
-9 -40 -7 -554 1 -615 5 -33 22 -123 31 -160 25 -104 86 -243 144 -328 30 -43
105 -123 153 -162 125 -103 315 -179 529 -211 148 -23 453 -23 560 0 8 1 33 7
55 11 22 5 42 10 45 10 87 17 237 86 316 145 63 47 144 126 144 140 0 5 4 10
8 10 4 0 21 22 37 50 17 27 33 50 38 50 4 0 7 8 7 18 0 10 6 26 14 37 11 17
50 113 60 150 14 50 25 103 31 145 2 14 4 25 5 25 4 0 7 37 15 155 11 162 12
221 3 226 -5 3 -5 11 -1 17 10 16 10 107 0 107 -5 0 -5 5 -1 11 9 15 11 180 1
186 -4 2 -4 10 0 16 10 16 10 107 0 107 -5 0 -5 5 -1 11 9 15 11 180 1 186 -4
2 -4 10 0 16 10 16 10 107 0 107 -5 0 -5 5 -1 11 9 15 11 180 1 186 -4 2 -4
10 0 16 10 16 10 107 0 107 -5 0 -5 5 -1 11 9 15 11 180 1 186 -4 2 -4 10 0
16 10 16 10 107 0 107 -5 0 -5 5 -1 11 10 17 10 88 0 82 -5 -4 -6 0 -1 7 11
17 13 231 3 253 -5 9 -5 17 0 17 4 0 7 24 5 53 -4 66 -4 64 -1 114 2 23 -1 39
-6 36 -5 -4 -6 0 -1 7 10 17 12 300 2 300 -5 0 -5 6 -1 12 11 18 11 167 0 160
-5 -3 -6 1 -1 8 11 17 13 231 3 253 -5 9 -5 17 0 17 4 0 7 24 5 53 -4 66 -4
64 -1 114 2 23 -1 39 -6 36 -5 -4 -6 0 -1 7 10 17 12 300 2 300 -5 0 -5 6 -1
12 10 16 11 168 2 161 -5 -2 -4 6 0 19 6 19 7 131 1 253 -2 55 -12 76 -42 92
-29 15 -117 16 -955 17 -508 1 -925 0 -926 -1z"/>
</g>
</svg>
